<?xml version="1.0" encoding="UTF-8"?>
<svg version="1.1" xmlns="http://www.w3.org/2000/svg" width="800" height="800">
<path d="M0 0 C264 0 528 0 800 0 C800 264 800 528 800 800 C536 800 272 800 0 800 C0 536 0 272 0 0 Z " fill="#FEFEFE" transform="translate(0,0)"/>
<path d="M0 0 C0.66 0 1.32 0 2 0 C4.85267137 7.53490411 7.67059552 15.08120911 10.42578125 22.65234375 C15.16499675 35.670078 19.97630335 48.65152452 25 61.5625 C25.37800247 62.5339949 25.37800247 62.5339949 25.76364136 63.52511597 C26.27294856 64.83384928 26.78226149 66.14258037 27.2915802 67.4513092 C27.54211655 68.0951506 27.79265289 68.738992 28.05078125 69.40234375 C28.30022995 70.04332504 28.54967865 70.68430634 28.8066864 71.3447113 C34.32231246 85.53337046 39.6575904 99.79195059 45.03204346 114.03453064 C46.87523066 118.91896637 48.71880905 123.80325439 50.5625 128.6875 C50.93093018 129.66369293 51.29936035 130.63988586 51.67895508 131.6456604 C55.98283931 143.04718452 60.3013607 154.44233704 64.6875 165.8125 C65.07607178 166.82014404 65.46464355 167.82778809 65.86499023 168.8659668 C66.41328491 170.28776245 66.41328491 170.28776245 66.97265625 171.73828125 C68.86820258 176.65454733 70.75766268 181.57294275 72.625 186.5 C73.09164063 187.7271875 73.55828125 188.954375 74.0390625 190.21875 C75 193 75 193 75 195 C75.9310405 194.98870811 75.9310405 194.98870811 76.88088989 194.97718811 C94.90011696 194.79119177 112.83656016 195.39900996 130.82666016 196.33239746 C133.58761486 196.47406504 136.34886846 196.60931689 139.11015129 196.74441433 C142.46679692 196.90900847 145.82324015 197.07750156 149.1796875 197.24609375 C150.39236298 197.3065538 151.60503845 197.36701385 152.85446167 197.42930603 C159.34985909 197.76622865 165.82234486 198.21425773 172.30194092 198.77705383 C175.96312167 199.07958472 179.62315517 199.27104337 183.29296875 199.4296875 C184.05464355 199.46455261 184.81631836 199.49941772 185.60107422 199.53533936 C188.12979369 199.65063071 190.65864196 199.76279276 193.1875 199.875 C195.00367292 199.95728133 196.81983469 200.039809 198.63598633 200.12255859 C202.72212667 200.30854227 206.80831631 200.49339731 210.89453125 200.67773438 C219.02368643 201.04539916 227.15247352 201.42094877 235.28125 201.796875 C236.02080744 201.83107166 236.76036488 201.86526833 237.52233315 201.90050125 C240.50979524 202.03864799 243.49725637 202.17681546 246.48471546 202.31502724 C254.42076379 202.68215524 262.35686406 203.04815529 270.29296875 203.4140625 C271.57840576 203.47333923 272.86384277 203.53261597 274.18823242 203.59368896 C277.12548779 203.72913653 280.06274364 203.86457392 283 204 C275.13671642 211.93313196 266.35642799 218.75775797 257.56030273 225.61621094 C251.38228271 230.44994345 245.34649589 235.45181902 239.30078125 240.44921875 C229.74920714 248.34377707 220.13004627 256.14553062 210.35864258 263.76635742 C205.67508274 267.43454 201.08186658 271.20588214 196.5 275 C190.8068908 279.71430735 185.06237184 284.34559651 179.23388672 288.89111328 C172.07015673 294.4878411 165.04218499 300.25169014 158 306 C149.61846636 312.84157722 141.22861966 319.6645495 132.69091797 326.31103516 C129.06493088 329.13835639 125.51866578 332.0413621 122 335 C123.30424149 341.09970067 124.78617549 347.12689842 126.42578125 353.14453125 C126.7699836 354.41933601 126.7699836 354.41933601 127.12113953 355.71989441 C127.8497017 358.41794545 128.58078144 361.1153034 129.3125 363.8125 C132.41853396 375.26303996 135.4551451 386.72190778 138.30528259 398.23907471 C139.70729634 403.88546614 141.21488195 409.48607973 142.875 415.0625 C145.24026516 423.17020683 147.40517903 431.31847091 149.5 439.5 C152.25783545 450.25888824 155.2157075 460.94285911 158.30908203 471.609375 C161.46355884 482.52408767 164.40514925 493.47540931 167.11645508 504.50854492 C168.73990903 511.07484209 170.51459098 517.59073752 172.38867188 524.08984375 C173.51508525 528.04152348 174.41342029 531.9321972 175 536 C167.52391823 531.60552771 160.24315823 526.95435064 153 522.1875 C151.86301046 521.44136155 150.72588169 520.69543524 149.58862305 519.94970703 C147.2322064 518.40430541 144.87638226 516.85800686 142.52099609 515.31103516 C136.95679488 511.65759363 131.38428999 508.01685417 125.8125 504.375 C124.73137939 503.66802979 123.65025879 502.96105957 122.53637695 502.23266602 C114.66457605 497.08560546 106.78663758 491.94801335 98.90698242 486.81298828 C91.60610436 482.05282834 84.31584853 477.27659825 77.02740479 472.49743652 C64.68976838 464.40581283 64.68976838 464.40581283 52.3125 456.375 C45.72769668 452.12616996 39.16049403 447.85064848 32.60028076 443.56396484 C30.89415513 442.45000671 29.18667491 441.33814977 27.47900391 440.2265625 C22.67123374 437.08991964 17.87869056 433.94468297 13.17578125 430.65234375 C12.14251709 429.93510132 12.14251709 429.93510132 11.08837891 429.20336914 C9.86666576 428.34961352 8.65324007 427.48380518 7.45068359 426.60327148 C4.97097968 424.87613153 3.46191216 423.98474164 0.3984375 424.0859375 C-2.18748831 425.0714532 -4.25686888 426.21544486 -6.5625 427.75 C-7.52414062 428.38164063 -8.48578125 429.01328125 -9.4765625 429.6640625 C-10.02602539 430.02918945 -10.57548828 430.39431641 -11.14160156 430.77050781 C-14.04758349 432.69306759 -16.97450722 434.58316403 -19.8984375 436.47827148 C-22.50466644 438.16856131 -25.10806614 439.86313885 -27.7109375 441.55859375 C-31.06679808 443.74376255 -34.42582654 445.9238574 -37.7890625 448.09765625 C-48.09277085 454.76388983 -58.31727073 461.54200875 -68.51480103 468.36898804 C-75.81952816 473.25583228 -83.16297732 478.05696039 -90.64526367 482.66796875 C-95.46544312 485.643309 -100.18253201 488.75220784 -104.88378906 491.91137695 C-110.55735555 495.71925215 -116.27435006 499.4584796 -122 503.1875 C-122.97332275 503.82155762 -123.94664551 504.45561523 -124.94946289 505.10888672 C-128.97871121 507.73272111 -133.00891134 510.35509173 -137.0390625 512.97753906 C-148.73481117 520.58959771 -160.41425511 528.22126133 -172 536 C-173.67606038 531.91460282 -172.21670409 528.38548505 -171 524.375 C-170.52979116 522.75823607 -170.06113556 521.14101987 -169.59375 519.5234375 C-169.33722656 518.64268555 -169.08070313 517.76193359 -168.81640625 516.85449219 C-167.31016143 511.58804051 -165.9128704 506.29210771 -164.5 501 C-162.53084677 493.65784139 -160.54852522 486.32042748 -158.5 479 C-156.16157498 470.64030043 -153.90739376 462.25856985 -151.65625 453.875 C-149.786074 446.91244 -147.90165085 439.95402618 -146 433 C-143.8374116 425.0878099 -141.69378832 417.17067888 -139.5625 409.25 C-139.27133301 408.16855713 -138.98016602 407.08711426 -138.68017578 405.97290039 C-137.17324434 400.37270525 -135.67121521 394.77124538 -134.17578125 389.16796875 C-129.07205948 370.07580998 -129.07205948 370.07580998 -126.3125 360.8125 C-124.71852916 355.44621846 -123.1295048 350.07968199 -121.625 344.6875 C-121.28726563 343.49511719 -120.94953125 342.30273438 -120.6015625 341.07421875 C-120.00368443 338.01882887 -119.95348862 336.84028147 -121 334 C-122.3488312 332.46180638 -122.3488312 332.46180638 -124.10546875 331.15234375 C-125.07504517 330.37709351 -125.07504517 330.37709351 -126.06420898 329.58618164 C-126.76489502 329.0421167 -127.46558105 328.49805176 -128.1875 327.9375 C-128.91074463 327.36314209 -129.63398926 326.78878418 -130.37915039 326.19702148 C-132.57821791 324.45437783 -134.78744349 322.72547137 -137 321 C-138.19293218 320.06538981 -139.38565722 319.13051515 -140.578125 318.1953125 C-142.26339091 316.87404649 -143.94912075 315.55343271 -145.63745117 314.23608398 C-151.06710152 309.98549586 -156.37310489 305.58983697 -161.68334961 301.19165039 C-166.07401898 297.56310874 -170.50510105 293.99841283 -175 290.5 C-181.07346324 285.77218075 -187.0183371 280.89840172 -192.94946289 275.99365234 C-198.25593234 271.60632294 -203.60596132 267.27933366 -209 263 C-215.73474327 257.63779509 -222.42459395 252.22216614 -229.10253906 246.78955078 C-234.37970219 242.4985747 -239.67994149 238.23770178 -245 234 C-251.72659759 228.64191709 -258.41344221 223.23673677 -265.08056641 217.80493164 C-269.81040039 213.95452822 -274.57263896 210.15036818 -279.375 206.390625 C-279.91125 205.93171875 -280.4475 205.4728125 -281 205 C-281 204.67 -281 204.34 -281 204 C-279.75541016 203.9498877 -278.51082031 203.89977539 -277.22851562 203.84814453 C-255.04472242 202.9520314 -232.86243036 202.03362543 -210.6875 200.9375 C-209.4504834 200.87746796 -209.4504834 200.87746796 -208.18847656 200.81622314 C-205.83775519 200.70165027 -203.48722119 200.58381478 -201.13671875 200.46484375 C-199.16771606 200.36610962 -199.16771606 200.36610962 -197.15893555 200.26538086 C-193.98051079 200.08378369 -190.81849368 199.8029641 -187.64941406 199.5 C-182.25912295 198.99689998 -176.88186036 198.7287676 -171.47265625 198.53515625 C-169.4608548 198.45755383 -167.44905472 198.37991569 -165.43725586 198.30224609 C-164.39697235 198.26315125 -163.35668884 198.2240564 -162.28488159 198.18377686 C-145.99126081 197.57055367 -129.71286134 196.86056367 -113.4375 195.875 C-99.9484906 195.06112604 -86.51495967 194.76150071 -73 195 C-72.86931625 194.27166962 -72.73863251 193.54333923 -72.60398865 192.79293823 C-72.03651762 190.16886322 -71.28599056 187.82010477 -70.33618164 185.31298828 C-69.99323563 184.40212967 -69.65028961 183.49127106 -69.29695129 182.55281067 C-68.92180893 181.56858627 -68.54666656 180.58436188 -68.16015625 179.5703125 C-67.76668503 178.52900681 -67.37321381 177.48770111 -66.96781921 176.4148407 C-65.66992998 172.98340892 -64.36632337 169.55418095 -63.0625 166.125 C-62.15307951 163.72494475 -61.24390281 161.3247971 -60.33496094 158.92456055 C-53.4131339 140.66087579 -46.43756744 122.41772536 -39.43830872 104.18359375 C-36.1234583 95.54769053 -32.81874876 86.90807513 -29.53125 78.26171875 C-29.16839905 77.30763626 -28.8055481 76.35355377 -28.43170166 75.37055969 C-26.71933679 70.86724272 -25.00848458 66.36335895 -23.29980469 61.85864258 C-20.50273699 54.49477728 -17.67956907 47.14589833 -14.734375 39.83984375 C-12.69889529 34.78369044 -10.76002296 29.72028939 -9 24.5625 C-6.14017878 16.32101521 -3.09536715 8.15552409 0 0 Z " fill="#010101" transform="translate(399,132)"/>
<path d="M0 0 C0 0.66 0 1.32 0 2 C0.66 1.67 1.32 1.34 2 1 C6.34117558 -0.44705853 10.73116507 -0.888171 15.10546875 0.82421875 C18.65840668 3.02923796 19.96181032 6.12016744 21 10 C21.30123437 12.96117706 21.36877633 15.89977569 21.375 18.875 C21.37661133 19.6369165 21.37822266 20.39883301 21.37988281 21.18383789 C21.26821669 26.73178331 21.26821669 26.73178331 19 29 C14.44444444 28.44444444 14.44444444 28.44444444 13 27 C12.84417697 25.65984779 12.74955858 24.31241097 12.68359375 22.96484375 C12.64169922 22.15595703 12.59980469 21.34707031 12.55664062 20.51367188 C12.51732422 19.66353516 12.47800781 18.81339844 12.4375 17.9375 C12.39431641 17.08349609 12.35113281 16.22949219 12.30664062 15.34960938 C12.20023298 13.23327963 12.09958269 11.11666187 12 9 C9.525 8.505 9.525 8.505 7 8 C7 14.6 7 21.2 7 28 C4.69 28 2.38 28 0 28 C-1.65497356 24.69005287 -1.10084335 21.00877 -1.0625 17.375 C-1.05573242 16.17230469 -1.05573242 16.17230469 -1.04882812 14.9453125 C-1.03703168 12.96350994 -1.01909605 10.98174567 -1 9 C-3.97 8.505 -3.97 8.505 -7 8 C-7.04898437 9.26457031 -7.09796875 10.52914063 -7.1484375 11.83203125 C-7.2234738 13.49220947 -7.29902127 15.15236464 -7.375 16.8125 C-7.4059375 17.64587891 -7.436875 18.47925781 -7.46875 19.33789062 C-7.50742187 20.14033203 -7.54609375 20.94277344 -7.5859375 21.76953125 C-7.63306885 22.87711792 -7.63306885 22.87711792 -7.68115234 24.00708008 C-8 26 -8 26 -10 29 C-12.475 28.01 -12.475 28.01 -15 27 C-15.14575327 23.60462148 -15.23421542 20.21005098 -15.3125 16.8125 C-15.35439453 15.85279297 -15.39628906 14.89308594 -15.43945312 13.90429688 C-15.56352954 6.73268033 -15.56352954 6.73268033 -12.60546875 2.88671875 C-8.08481766 -0.38685618 -5.48672769 -0.08849561 0 0 Z " fill="#060606" transform="translate(487,400)"/>
<path d="M0 0 C0.66 -0.33 1.32 -0.66 2 -1 C6.07909806 -1.38482057 8.29089873 -1.44121857 11.8125 0.75 C15.22347828 4.25843481 16.25780134 6.89149565 16.1953125 11.765625 C16.18886719 12.65507812 16.18242187 13.54453125 16.17578125 14.4609375 C16.15902344 15.38132812 16.14226562 16.30171875 16.125 17.25 C16.11597656 18.18585938 16.10695313 19.12171875 16.09765625 20.0859375 C16.07413636 22.39088657 16.04126853 24.6953116 16 27 C11.25 28.125 11.25 28.125 9 27 C9 20.73 9 14.46 9 8 C6.03 7.505 6.03 7.505 3 7 C3.04640625 8.18078125 3.0928125 9.3615625 3.140625 10.578125 C3.17814949 12.13539134 3.21454893 13.69268508 3.25 15.25 C3.30027344 16.41595703 3.30027344 16.41595703 3.3515625 17.60546875 C3.45112665 23.42997175 3.45112665 23.42997175 0.984375 26.546875 C0.00210937 27.26617187 0.00210937 27.26617187 -1 28 C-2.32 27.34 -3.64 26.68 -5 26 C-5 20.06 -5 14.12 -5 8 C-6.98 8.66 -8.96 9.32 -11 10 C-11.06058594 11.05960937 -11.12117188 12.11921875 -11.18359375 13.2109375 C-11.26800127 14.59897221 -11.35264917 15.98699232 -11.4375 17.375 C-11.49647461 18.42300781 -11.49647461 18.42300781 -11.55664062 19.4921875 C-11.88671875 24.7734375 -11.88671875 24.7734375 -13 27 C-14.98 27 -16.96 27 -19 27 C-20.1482685 24.703463 -20.11561175 23.41686833 -20.09765625 20.8671875 C-20.09443359 20.06152344 -20.09121094 19.25585938 -20.08789062 18.42578125 C-20.07951172 17.58402344 -20.07113281 16.74226563 -20.0625 15.875 C-20.05798828 15.02550781 -20.05347656 14.17601562 -20.04882812 13.30078125 C-20.03702874 11.20049091 -20.01909306 9.1002367 -20 7 C-19.34 7 -18.68 7 -18 7 C-17.62875 5.576875 -17.62875 5.576875 -17.25 4.125 C-16 1 -16 1 -14.3125 -0.375 C-9.40599765 -1.70108172 -4.88659957 -0.97731991 0 0 Z " fill="#292929" transform="translate(381,401)"/>
<path d="M0 0 C1.99954746 -0.04254356 4.00041636 -0.04080783 6 0 C8.73576772 2.73576772 7.18567836 11.06300977 7.1875 14.75 C7.19974609 16.0390625 7.21199219 17.328125 7.22460938 18.65625 C7.22750977 20.52023437 7.22750977 20.52023437 7.23046875 22.421875 C7.23457764 23.56237305 7.23868652 24.70287109 7.24291992 25.87792969 C6.90675681 30.19838588 5.88517849 32.97205078 3.0625 36.25 C-0.53154818 39.29949543 -4.18360043 39.39927084 -8.7109375 39.34765625 C-12.70174842 38.74154333 -14.30051704 36.96284715 -17 34 C-18.3125 31.625 -18.3125 31.625 -19 29 C-19.309375 27.906875 -19.61875 26.81375 -19.9375 25.6875 C-20.0204264 20.79484237 -18.21147264 17.64724769 -15 14 C-14.34 14 -13.68 14 -13 14 C-13 13.34 -13 12.68 -13 12 C-6.9453125 11.0234375 -6.9453125 11.0234375 -5 11 C-3 13 -3 13 -2.875 16.125 C-2.91625 17.07375 -2.9575 18.0225 -3 19 C-3.969375 19.12375 -4.93875 19.2475 -5.9375 19.375 C-6.948125 19.58125 -7.95875 19.7875 -9 20 C-9.33 20.66 -9.66 21.32 -10 22 C-10.66 22 -11.32 22 -12 22 C-11.1395861 26.33229715 -11.1395861 26.33229715 -9 30 C-6.67182036 30.36760731 -4.3381615 30.70241581 -2 31 C-0.96957053 27.55301173 -0.80205297 24.29074718 -0.68359375 20.703125 C-0.64169922 19.49785156 -0.59980469 18.29257812 -0.55664062 17.05078125 C-0.51732422 15.79652344 -0.47800781 14.54226563 -0.4375 13.25 C-0.37272461 11.34541016 -0.37272461 11.34541016 -0.30664062 9.40234375 C-0.20060278 6.26833635 -0.09853942 3.13425067 0 0 Z " fill="#292929" transform="translate(268,389)"/>
<path d="M0 0 C3.08278612 2.4158372 4.55127227 4.22105866 5.25 8.0234375 C4.68410156 8.50554687 4.11820312 8.98765625 3.53515625 9.484375 C2.80167969 10.11601562 2.06820313 10.74765625 1.3125 11.3984375 C0.58160156 12.02492188 -0.14929688 12.65140625 -0.90234375 13.296875 C-2.83380906 14.90091464 -2.83380906 14.90091464 -3.75 17.0234375 C-5.4 17.0234375 -7.05 17.0234375 -8.75 17.0234375 C-9.81351675 13.63952057 -9.96442982 12.4429741 -8.3125 9.2109375 C-7.796875 8.4890625 -7.28125 7.7671875 -6.75 7.0234375 C-8.07 7.3534375 -9.39 7.6834375 -10.75 8.0234375 C-10.770625 9.2815625 -10.79125 10.5396875 -10.8125 11.8359375 C-10.82410156 12.54363281 -10.83570313 13.25132812 -10.84765625 13.98046875 C-10.83263217 16.22649211 -10.83263217 16.22649211 -9.75 19.0234375 C-8.69039063 19.07242187 -7.63078125 19.12140625 -6.5390625 19.171875 C-5.15101503 19.24690459 -3.76299549 19.32245235 -2.375 19.3984375 C-1.67632812 19.429375 -0.97765625 19.4603125 -0.2578125 19.4921875 C5.0234375 19.796875 5.0234375 19.796875 7.25 22.0234375 C6.69444444 26.57899306 6.69444444 26.57899306 5.25 28.0234375 C3.00268875 28.1499223 0.75083761 28.19926303 -1.5 28.2109375 C-2.73234375 28.22511719 -3.9646875 28.23929687 -5.234375 28.25390625 C-10.09704926 27.93513094 -12.72642096 27.16074755 -16 23.5234375 C-19.63250861 18.33413949 -19.59689469 13.22872194 -18.75 7.0234375 C-16.89567902 3.44767847 -14.66219414 0.64958734 -10.7578125 -0.62890625 C-3.40766279 -1.90159754 -3.40766279 -1.90159754 0 0 Z " fill="#282828" transform="translate(318.75,400.9765625)"/>
<path d="M0 0 C1.66611905 -0.042721 3.33382885 -0.04063832 5 0 C6 1 6 1 6 6 C10.62 6 15.24 6 20 6 C20.38063221 8.3260857 20.71269945 10.66055264 21 13 C20 14 20 14 16.83984375 14.09765625 C14.90818359 14.08025391 14.90818359 14.08025391 12.9375 14.0625 C11.64714844 14.05347656 10.35679687 14.04445313 9.02734375 14.03515625 C8.02832031 14.02355469 7.02929688 14.01195312 6 14 C6.33 17.96 6.66 21.92 7 26 C8.98 26 10.96 26 13 26 C13.99 22.535 13.99 22.535 15 19 C16.65614657 18.61781233 18.32457024 18.28604898 20 18 C21 19 21 19 21.125 22.375 C21 26 21 26 20 29 C19.34 29 18.68 29 18 29 C18 29.99 18 30.98 18 32 C14.28848869 34.47434087 10.3075012 34.69449156 6 34 C0.5 31 0.5 31 -1 28 C-1.09699846 26.06442322 -1.13076201 24.12550463 -1.1328125 22.1875 C-1.13410156 21.02992188 -1.13539063 19.87234375 -1.13671875 18.6796875 C-1.13285156 17.46539062 -1.12898438 16.25109375 -1.125 15 C-1.12886719 13.78570312 -1.13273437 12.57140625 -1.13671875 11.3203125 C-1.13542969 10.16273438 -1.13414062 9.00515625 -1.1328125 7.8125 C-1.13168457 6.74644531 -1.13055664 5.68039062 -1.12939453 4.58203125 C-1 2 -1 2 0 0 Z " fill="#2A2A2A" transform="translate(431,394)"/>
<path d="M0 0 C3.48297141 2.99922538 5.89224557 6.52809461 6.57128906 11.10131836 C6.64162187 13.37202779 6.60111964 15.60564198 6.5 17.875 C6.47292969 19.04385742 6.47292969 19.04385742 6.4453125 20.23632812 C6.39866383 22.13726131 6.32693829 24.03755169 6.25 25.9375 C4.27 26.9275 4.27 26.9275 2.25 27.9375 C1.26 27.2775 0.27 26.6175 -0.75 25.9375 C-1.05588676 23.39922813 -1.21651463 21.04249621 -1.25 18.5 C-1.16966259 13.4860622 -1.16966259 13.4860622 -3.11328125 9.0078125 C-5.25590299 7.60667083 -7.23427721 7.27746254 -9.75 6.9375 C-12.07590854 10.57173209 -11.91265833 13.70838331 -11.75 17.9375 C-10.079375 18.370625 -10.079375 18.370625 -8.375 18.8125 C-4.75 19.9375 -4.75 19.9375 -2.75 21.9375 C-3.125 24.5625 -3.125 24.5625 -3.75 26.9375 C-8.38118155 27.25689183 -10.89984124 27.3468357 -15.125 25.3125 C-19.2845153 21.54912901 -19.83427129 17.84323695 -20.125 12.4375 C-20.03078173 7.79725011 -18.77990841 5.41298318 -15.75 1.9375 C-15.09 1.9375 -14.43 1.9375 -13.75 1.9375 C-13.75 1.2775 -13.75 0.6175 -13.75 -0.0625 C-9.00307382 -1.64480873 -4.63879534 -1.79226184 0 0 Z " fill="#2A2A2A" transform="translate(348.75,401.0625)"/>
<path d="M0 0 C3.27928748 2.45946561 5.72760732 5.0671499 7 9 C7.48721014 14.26186946 6.66125581 17.45368799 4 22 C3.67 21.01 3.34 20.02 3 19 C3.33 18.34 3.66 17.68 4 17 C4.37103568 13.06702181 4.31089131 10.63529963 2.5625 7.0625 C-0.70135824 4.43549215 -2.77058855 4.33208283 -6.87109375 4.58203125 C-9.19087756 4.90378046 -9.19087756 4.90378046 -11.5625 6.625 C-13.42583125 9.70354728 -13.5170119 11.45477556 -13 15 C-11.58022091 17.22743787 -11.58022091 17.22743787 -10 19 C-10 19.66 -10 20.32 -10 21 C-7.36 20.34 -4.72 19.68 -2 19 C-1.26665571 15.02245872 -1.26665571 15.02245872 -1 11 C-3.31 11.33 -5.62 11.66 -8 12 C-8 13.32 -8 14.64 -8 16 C-7.01 16 -6.02 16 -5 16 C-5 15.01 -5 14.02 -5 13 C-4.34 13 -3.68 13 -3 13 C-3.33 14.65 -3.66 16.3 -4 18 C-6.375 18.125 -6.375 18.125 -9 18 C-11 16 -11 16 -11.3125 12.5625 C-11 9 -11 9 -9.875 7.0625 C-7.14015561 5.51275485 -5.0875593 5.67837924 -2 6 C-1.01 6.66 -0.02 7.32 1 8 C1 8.66 1 9.32 1 10 C1.66 10 2.32 10 3 10 C2.38824965 19.87238494 2.38824965 19.87238494 -1 23 C-4.73536389 24.2451213 -8.12580868 24.63437051 -12 24 C-15.22452356 21.94179347 -16.63217149 20.37307412 -17.62890625 16.65234375 C-18.39280447 11.32113831 -18.29027361 7.49670726 -15 3 C-10.76805039 -0.84722692 -5.4350011 -0.96542783 0 0 Z " fill="#2D2D2D" transform="translate(468,373)"/>
<path d="M0 0 C2.57567174 0.6527692 2.57567174 0.6527692 5.3046875 -1.65234375 C9.18189084 -1.9823185 12.0835964 -1.95312311 15.3046875 0.34765625 C17.1053883 3.29192627 17.54631365 5.46732081 17.5 8.89453125 C17.49355469 9.73886719 17.48710937 10.58320313 17.48046875 11.453125 C17.46371094 12.32582031 17.44695312 13.19851563 17.4296875 14.09765625 C17.42066406 14.98582031 17.41164063 15.87398438 17.40234375 16.7890625 C17.37883327 18.97553683 17.34597249 21.16145719 17.3046875 23.34765625 C16.3146875 23.34765625 15.3246875 23.34765625 14.3046875 23.34765625 C14.26730469 22.07148438 14.22992188 20.7953125 14.19140625 19.48046875 C14.12575959 17.81116787 14.0593118 16.14189836 13.9921875 14.47265625 C13.96962891 13.63089844 13.94707031 12.78914063 13.92382812 11.921875 C13.8706543 10.71337891 13.8706543 10.71337891 13.81640625 9.48046875 C13.79022217 8.73684082 13.76403809 7.99321289 13.73706055 7.22705078 C13.43739159 4.94031799 13.43739159 4.94031799 10.3046875 3.34765625 C8.3246875 3.34765625 6.3446875 3.34765625 4.3046875 3.34765625 C3.9746875 9.61765625 3.6446875 15.88765625 3.3046875 22.34765625 C2.3146875 22.34765625 1.3246875 22.34765625 0.3046875 22.34765625 C-0.0253125 16.07765625 -0.3553125 9.80765625 -0.6953125 3.34765625 C-3.3353125 3.34765625 -5.9753125 3.34765625 -8.6953125 3.34765625 C-9.88226803 6.90852283 -10.04626668 10.32096649 -10.2578125 14.03515625 C-10.32258789 15.08799805 -10.32258789 15.08799805 -10.38867188 16.16210938 C-10.4944861 17.89040831 -10.59537831 19.61900735 -10.6953125 21.34765625 C-12.0153125 21.67765625 -13.3353125 22.00765625 -14.6953125 22.34765625 C-14.74951951 19.78486926 -14.78908257 17.22324142 -14.8203125 14.66015625 C-14.84544922 13.57831055 -14.84544922 13.57831055 -14.87109375 12.47460938 C-14.90915541 8.30685728 -14.66486495 5.05261855 -12.6953125 1.34765625 C-8.55439499 -2.66385759 -5.0868162 -1.41472244 0 0 Z " fill="#050505" transform="translate(377.6953125,403.65234375)"/>
<path d="M0 0 C1.9375 1.5 1.9375 1.5 3 3 C2.4375 4.875 2.4375 4.875 1 7 C-1.31421438 7.7302744 -3.64814825 8.40193461 -6 9 C-6.09796875 10.03640625 -6.1959375 11.0728125 -6.296875 12.140625 C-6.4470002 13.51051741 -6.59809287 14.88030404 -6.75 16.25 C-6.811875 16.93191406 -6.87375 17.61382812 -6.9375 18.31640625 C-7.31804297 21.58273339 -7.83676213 23.76971801 -9.75 26.46875 C-12.49187993 28.33475162 -13.96803407 28.42273505 -17.25 28.25 C-18.14203125 28.21390625 -19.0340625 28.1778125 -19.953125 28.140625 C-20.96632813 28.07101562 -20.96632813 28.07101562 -22 28 C-22.93423645 24.98968256 -23.04449911 24.13349732 -22 21 C-19.29120665 19.64560332 -16.99066732 19.93498549 -14 20 C-14.03480469 19.20335937 -14.06960938 18.40671875 -14.10546875 17.5859375 C-14.38624339 6.59561602 -14.38624339 6.59561602 -11 2 C-7.6615094 -0.62309976 -4.10872524 -0.37352048 0 0 Z " fill="#2A2A2A" transform="translate(424,400)"/>
<path d="M0 0 C0 0.66 0 1.32 0 2 C0.66 1.67 1.32 1.34 2 1 C6.34117558 -0.44705853 10.73116507 -0.888171 15.10546875 0.82421875 C18.65840668 3.02923796 19.96181032 6.12016744 21 10 C21.30123437 12.96117706 21.36877633 15.89977569 21.375 18.875 C21.37661133 19.6369165 21.37822266 20.39883301 21.37988281 21.18383789 C21.26821669 26.73178331 21.26821669 26.73178331 19 29 C14.44444444 28.44444444 14.44444444 28.44444444 13 27 C12.84417697 25.65984779 12.74955858 24.31241097 12.68359375 22.96484375 C12.64169922 22.15595703 12.59980469 21.34707031 12.55664062 20.51367188 C12.51732422 19.66353516 12.47800781 18.81339844 12.4375 17.9375 C12.39431641 17.08349609 12.35113281 16.22949219 12.30664062 15.34960938 C12.20023298 13.23327963 12.09958269 11.11666187 12 9 C9.525 8.505 9.525 8.505 7 8 C7.99 7.34 8.98 6.68 10 6 C11.65 6.66 13.3 7.32 15 8 C15.33 13.94 15.66 19.88 16 26 C16.99 26.33 17.98 26.66 19 27 C18.85895309 24.08302989 18.71235186 21.1665198 18.5625 18.25 C18.52318359 17.425 18.48386719 16.6 18.44335938 15.75 C18.40146484 14.95078125 18.35957031 14.1515625 18.31640625 13.328125 C18.26141968 12.22839355 18.26141968 12.22839355 18.20532227 11.10644531 C17.99655706 8.96467813 17.66350609 7.04776952 17 5 C12.80256282 1.89078727 8.08124876 2.84047149 3.1875 3.5625 C1.6096875 3.7790625 1.6096875 3.7790625 0 4 C-0.33 3.67 -0.66 3.34 -1 3 C-5.7029691 2.51881839 -5.7029691 2.51881839 -9.875 4.3125 C-11.78527533 7.17791299 -12.12280034 9.66755539 -12.09765625 13.01171875 C-12.09443359 13.76904297 -12.09121094 14.52636719 -12.08789062 15.30664062 C-12.07951172 16.09232422 -12.07113281 16.87800781 -12.0625 17.6875 C-12.05798828 18.48478516 -12.05347656 19.28207031 -12.04882812 20.10351562 C-12.0370585 22.06904257 -12.01912348 24.03453085 -12 26 C-11.67 26 -11.34 26 -11 26 C-10.67 20.39 -10.34 14.78 -10 9 C-9.01 8.67 -8.02 8.34 -7 8 C-7.11381897 10.93832645 -7.24056551 13.8751065 -7.375 16.8125 C-7.4059375 17.64587891 -7.436875 18.47925781 -7.46875 19.33789062 C-7.50742187 20.14033203 -7.54609375 20.94277344 -7.5859375 21.76953125 C-7.63306885 22.87711792 -7.63306885 22.87711792 -7.68115234 24.00708008 C-8 26 -8 26 -10 29 C-12.475 28.01 -12.475 28.01 -15 27 C-15.14575327 23.60462148 -15.23421542 20.21005098 -15.3125 16.8125 C-15.35439453 15.85279297 -15.39628906 14.89308594 -15.43945312 13.90429688 C-15.56352954 6.73268033 -15.56352954 6.73268033 -12.60546875 2.88671875 C-8.08481766 -0.38685618 -5.48672769 -0.08849561 0 0 Z " fill="#2A2A2A" transform="translate(487,400)"/>
<path d="M0 0 C0.99 0 1.98 0 3 0 C3.11651725 4.37477474 3.18736 8.74914827 3.25 13.125 C3.28351563 14.3625 3.31703125 15.6 3.3515625 16.875 C3.47492816 28.34800634 3.47492816 28.34800634 -1 33 C-5.00701694 35.67134463 -8.28876296 35.82653281 -13 35 C-16.28175318 32.47031526 -17.69243777 30.92268669 -19 27 C-19.39308695 22.20433923 -19.48270142 19.93092416 -17.25 15.625 C-14.01176471 11.84705882 -14.01176471 11.84705882 -11 11 C-8.75 11.375 -8.75 11.375 -7 12 C-7.33 12.99 -7.66 13.98 -8 15 C-9.98 15.33 -11.96 15.66 -14 16 C-14.66 19.63 -15.32 23.26 -16 27 C-15.34 27 -14.68 27 -14 27 C-13.34 27.99 -12.68 28.98 -12 30 C-7.90608497 30.63553538 -7.90608497 30.63553538 -4 30 C-1.28941349 26.31255437 -0.60453691 23.57693932 -0.48828125 19.04296875 C-0.45283203 17.93115234 -0.41738281 16.81933594 -0.38085938 15.67382812 C-0.35830078 14.52333984 -0.33574219 13.37285156 -0.3125 12.1875 C-0.27833984 11.01767578 -0.24417969 9.84785156 -0.20898438 8.64257812 C-0.12667684 5.76181446 -0.05746822 2.88134862 0 0 Z " fill="#040404" transform="translate(270,391)"/>
<path d="M0 0 C1.21236328 0.01353516 1.21236328 0.01353516 2.44921875 0.02734375 C3.37154297 0.04474609 3.37154297 0.04474609 4.3125 0.0625 C4.6425 1.0525 4.9725 2.0425 5.3125 3.0625 C4.70921875 3.03929687 4.1059375 3.01609375 3.484375 2.9921875 C2.68515625 2.97414063 1.8859375 2.95609375 1.0625 2.9375 C-0.12085938 2.90269531 -0.12085938 2.90269531 -1.328125 2.8671875 C-3.93364317 3.08287609 -5.48736977 3.6703822 -7.6875 5.0625 C-8.0175 5.7225 -8.3475 6.3825 -8.6875 7.0625 C-9.3475 7.0625 -10.0075 7.0625 -10.6875 7.0625 C-10.6875 12.0125 -10.6875 16.9625 -10.6875 22.0625 C-10.0275 22.0625 -9.3675 22.0625 -8.6875 22.0625 C-8.05908203 22.78373047 -8.05908203 22.78373047 -7.41796875 23.51953125 C-5.01714259 25.66022275 -3.17026666 25.56351373 0 25.75 C0.99386719 25.81574219 1.98773437 25.88148438 3.01171875 25.94921875 C3.77097656 25.98660156 4.53023437 26.02398437 5.3125 26.0625 C5.3125 25.0725 5.3125 24.0825 5.3125 23.0625 C4.62542969 23.02511719 3.93835938 22.98773438 3.23046875 22.94921875 C2.32941406 22.88347656 1.42835938 22.81773437 0.5 22.75 C-0.39332031 22.69199219 -1.28664063 22.63398438 -2.20703125 22.57421875 C-5.06998688 21.98359326 -6.04468168 21.46478515 -7.6875 19.0625 C-8.015625 16.87109375 -8.015625 16.87109375 -7.9375 14.5 C-7.92203125 13.71496094 -7.9065625 12.92992187 -7.890625 12.12109375 C-7.6875 10.0625 -7.6875 10.0625 -6.6875 8.0625 C-6.0275 8.0625 -5.3675 8.0625 -4.6875 8.0625 C-4.6875 7.4025 -4.6875 6.7425 -4.6875 6.0625 C-2.7075 6.0625 -0.7275 6.0625 1.3125 6.0625 C0.74704163 10.02070859 -0.49652348 12.7284053 -2.6875 16.0625 C-1.945 15.60875 -1.2025 15.155 -0.4375 14.6875 C1.78180578 13.37609204 3.99217822 12.17969197 6.3125 11.0625 C6.3125 8.7525 6.3125 6.4425 6.3125 4.0625 C7.3025 4.0625 8.2925 4.0625 9.3125 4.0625 C9.76000034 7.12041902 9.77277197 9.27620205 8.1875 11.984375 C5.65079503 15.18168022 4.00367857 16.83653777 0.0625 18.125 C-2.6875 18.0625 -2.6875 18.0625 -4.6875 16.0625 C-4.46006695 13.10587034 -4.07514062 11.51216312 -2.125 9.25 C-1.650625 8.858125 -1.17625 8.46625 -0.6875 8.0625 C-2.0075 8.3925 -3.3275 8.7225 -4.6875 9.0625 C-4.6875 9.7225 -4.6875 10.3825 -4.6875 11.0625 C-5.3475 11.0625 -6.0075 11.0625 -6.6875 11.0625 C-5.58963575 16.47037385 -5.58963575 16.47037385 -1.6875 20.0625 C0.3617094 20.51389459 0.3617094 20.51389459 2.5 20.6875 C3.758125 20.81125 5.01625 20.935 6.3125 21.0625 C7.4375 25.8125 7.4375 25.8125 6.3125 28.0625 C4.41739301 28.14410748 2.52125496 28.20196459 0.625 28.25 C-0.95861328 28.30220703 -0.95861328 28.30220703 -2.57421875 28.35546875 C-6.1069143 28.0230319 -7.87802138 27.19434029 -10.6875 25.0625 C-13.67950139 19.90387691 -14.6870368 14.99523457 -13.6875 9.0625 C-12.60688645 6.58672812 -11.49597271 5.13692458 -9.6875 3.0625 C-9.0275 3.0625 -8.3675 3.0625 -7.6875 3.0625 C-7.6875 2.4025 -7.6875 1.7425 -7.6875 1.0625 C-4.80538698 0.10179566 -2.98899956 -0.04331883 0 0 Z " fill="#292929" transform="translate(527.6875,399.9375)"/>
<path d="M0 0 C2.75 0.5625 2.75 0.5625 4.75 2.5625 C4.6875 5 4.6875 5 3.75 7.5625 C2.92113281 7.9440625 2.09226562 8.325625 1.23828125 8.71875 C-1.66488405 10.42989945 -1.66488405 10.42989945 -1.921875 14.28515625 C-1.97223883 15.73112838 -1.99744147 17.1781533 -2 18.625 C-2.17822581 26.41895161 -2.17822581 26.41895161 -3.25 28.5625 C-5.23 28.5625 -7.21 28.5625 -9.25 28.5625 C-9.42576433 25.20900673 -9.53132437 21.85671021 -9.625 18.5 C-9.67527344 17.55705078 -9.72554688 16.61410156 -9.77734375 15.64257812 C-9.90474823 9.54839738 -9.09712371 6.2298285 -4.86669922 1.76416016 C-3.25 0.5625 -3.25 0.5625 0 0 Z " fill="#2B2B2B" transform="translate(290.25,399.4375)"/>
<path d="M0 0 C0.99 0.33 1.98 0.66 3 1 C3.3125 4.1875 3.3125 4.1875 3 8 C0.625 10.8125 0.625 10.8125 -2 13 C-2.66 13.66 -3.32 14.32 -4 15 C-4.99 15 -5.98 15 -7 15 C-6.42655063 12.13275314 -6.1385485 11.1385485 -4 9 C-3.3574765 6.93125966 -3.3574765 6.93125966 -3 5 C-4.98 5 -6.96 5 -9 5 C-9 5.66 -9 6.32 -9 7 C-9.66 7 -10.32 7 -11 7 C-11.05391993 8.79133978 -11.09275571 10.58313899 -11.125 12.375 C-11.14820313 13.37273437 -11.17140625 14.37046875 -11.1953125 15.3984375 C-11.27216848 18.16262173 -11.27216848 18.16262173 -9 20 C-6.57284794 20.67940467 -6.57284794 20.67940467 -3.875 21.125 C-2.96492187 21.29257812 -2.05484375 21.46015625 -1.1171875 21.6328125 C-0.41851563 21.75398438 0.28015625 21.87515625 1 22 C1 22.99 1 23.98 1 25 C-0.77049689 25.05410687 -2.54146849 25.09284119 -4.3125 25.125 C-5.79169922 25.15980469 -5.79169922 25.15980469 -7.30078125 25.1953125 C-10 25 -10 25 -13 23 C-13 22.34 -13 21.68 -13 21 C-13.66 21 -14.32 21 -15 21 C-16.30459914 18.39080172 -16.1326594 16.41057385 -16.125 13.5 C-16.12757813 12.5203125 -16.13015625 11.540625 -16.1328125 10.53125 C-16 8 -16 8 -15 6 C-14.34 6 -13.68 6 -13 6 C-12.67 5.01 -12.34 4.02 -12 3 C-8.36632439 0.23840654 -4.34961164 0.85501295 0 1 C0 0.67 0 0.34 0 0 Z " fill="#060606" transform="translate(532,401)"/>
<path d="M0 0 C0.02891949 4.29165262 0.04677118 8.58328036 0.0625 12.875 C0.07087891 14.09832031 0.07925781 15.32164062 0.08789062 16.58203125 C0.09111328 17.74863281 0.09433594 18.91523438 0.09765625 20.1171875 C0.10289307 21.19597168 0.10812988 22.27475586 0.11352539 23.38623047 C0 26 0 26 -1 28 C-2.98 28 -4.96 28 -7 28 C-8.3308911 25.33821779 -8.11268993 23.31260604 -8.09765625 20.3359375 C-8.09443359 19.21445312 -8.09121094 18.09296875 -8.08789062 16.9375 C-8.07951172 15.761875 -8.07113281 14.58625 -8.0625 13.375 C-8.05798828 12.19164062 -8.05347656 11.00828125 -8.04882812 9.7890625 C-8.03701467 6.85932493 -8.02054258 3.92968728 -8 1 C-5.29120665 -0.35439668 -2.99066732 -0.06501451 0 0 Z " fill="#282828" transform="translate(466,400)"/>
<path d="M0 0 C0.99 0 1.98 0 3 0 C3 1.98 3 3.96 3 6 C7.95 6 12.9 6 18 6 C18 7.32 18 8.64 18 10 C13.05 10 8.1 10 3 10 C3.185625 12.8771875 3.185625 12.8771875 3.375 15.8125 C3.44460938 16.89144531 3.51421875 17.97039062 3.5859375 19.08203125 C3.81195733 22.18626186 3.81195733 22.18626186 6 25 C9.08365871 25.2502157 9.08365871 25.2502157 12 25 C13.32 22.69 14.64 20.38 16 18 C16.66 18.66 17.32 19.32 18 20 C17.8514065 23.4176505 17.32307875 25.50892029 15.4375 28.375 C12.64752348 30.23498435 10.42601471 30.516417 7.09765625 30.62890625 C3.42383807 29.52744493 2.20201109 28.17393322 0 25 C-0.61739554 20.71394517 -0.46976472 16.50623121 -0.3125 12.1875 C-0.28994141 11.01767578 -0.26738281 9.84785156 -0.24414062 8.64257812 C-0.18532091 5.76041231 -0.10317141 2.88086319 0 0 Z " fill="#050505" transform="translate(432,396)"/>
<path d="M0 0 C2.39424721 1.971733 3.08169754 2.84365742 4.125 5.75 C4.36386519 8.67144774 4.3131376 11.5713865 4.25 14.5 C4.24097656 15.29277344 4.23195313 16.08554687 4.22265625 16.90234375 C4.19917012 18.85169281 4.16330137 20.80088575 4.125 22.75 C3.135 22.75 2.145 22.75 1.125 22.75 C1.09921875 21.72519531 1.0734375 20.70039063 1.046875 19.64453125 C0.99056942 18.28381301 0.93322263 16.92313757 0.875 15.5625 C0.86082031 14.88896484 0.84664063 14.21542969 0.83203125 13.52148438 C0.59847662 8.73361437 -0.32855508 6.01679693 -3.875 2.75 C-7.86938174 2.81886865 -10.0064229 2.8814229 -12.875 5.75 C-13.11815656 8.41949409 -13.11815656 8.41949409 -13 11.375 C-12.97292969 12.87933594 -12.97292969 12.87933594 -12.9453125 14.4140625 C-12.92210937 15.18492187 -12.89890625 15.95578125 -12.875 16.75 C-10.235 17.41 -7.595 18.07 -4.875 18.75 C-4.875 19.74 -4.875 20.73 -4.875 21.75 C-11.22911471 22.23877805 -11.22911471 22.23877805 -14.1875 20 C-17.28006114 15.87658514 -18.32888177 13.12128805 -18.19921875 7.78515625 C-17.66344972 4.42207592 -16.04655623 2.29382301 -13.875 -0.25 C-9.01576124 -1.86974625 -4.66540052 -2.02843501 0 0 Z " fill="#050505" transform="translate(348.875,404.25)"/>
<path d="M0 0 C4.66091863 0.59110776 4.66091863 0.59110776 7.125 3.5625 C7.41375 4.366875 7.7025 5.17125 8 6 C6.625 8 6.625 8 5 10 C4.34 10 3.68 10 3 10 C2.34 11.32 1.68 12.64 1 14 C0.01 14 -0.98 14 -2 14 C-1.75 11.625 -1.75 11.625 -1 9 C1.0625 7.6875 1.0625 7.6875 3 7 C3 6.01 3 5.02 3 4 C-0.3 4.66 -3.6 5.32 -7 6 C-7 9.96 -7 13.92 -7 18 C-6.34 18 -5.68 18 -5 18 C-5 18.66 -5 19.32 -5 20 C-0.05 20.33 4.9 20.66 10 21 C10 21.99 10 22.98 10 24 C7.60225255 24.13572155 5.21224755 24.23436868 2.8125 24.3125 C1.80219727 24.3753418 1.80219727 24.3753418 0.77148438 24.43945312 C-3.26303321 24.53785599 -4.79311935 24.17373555 -7.92578125 21.54296875 C-8.61027344 20.70378906 -9.29476563 19.86460937 -10 19 C-10.33 18.67 -10.66 18.34 -11 18 C-11.54372668 12.35360754 -11.73530542 7.5653733 -8 3 C-7.57332031 2.46246094 -7.14664062 1.92492187 -6.70703125 1.37109375 C-4.35391211 -0.51894016 -2.96373958 -0.28226091 0 0 Z " fill="#040404" transform="translate(313,402)"/>
<path d="M0 0 C2.16015625 0.546875 2.16015625 0.546875 5.22265625 3.109375 C7.44239911 7.04762847 7.73684018 9.0981704 7.16015625 13.546875 C6.16015625 15.984375 6.16015625 15.984375 5.16015625 17.546875 C4.17015625 17.216875 3.18015625 16.886875 2.16015625 16.546875 C2.46953125 16.010625 2.77890625 15.474375 3.09765625 14.921875 C4.33843064 12.1483793 4.75112375 9.54644663 5.16015625 6.546875 C4.50015625 6.546875 3.84015625 6.546875 3.16015625 6.546875 C2.54140625 5.804375 2.54140625 5.804375 1.91015625 5.046875 C0.1527699 3.25197161 0.1527699 3.25197161 -2.90234375 3.234375 C-5.96046203 3.24860188 -5.96046203 3.24860188 -7.83984375 5.546875 C-8.08988339 9.08866098 -8.08988339 9.08866098 -7.83984375 12.546875 C-6.7733926 13.84321121 -6.7733926 13.84321121 -4.27734375 13.609375 C-3.47296875 13.58875 -2.66859375 13.568125 -1.83984375 13.546875 C-1.50984375 12.226875 -1.17984375 10.906875 -0.83984375 9.546875 C-1.49984375 9.546875 -2.15984375 9.546875 -2.83984375 9.546875 C-2.83984375 10.536875 -2.83984375 11.526875 -2.83984375 12.546875 C-3.82984375 12.546875 -4.81984375 12.546875 -5.83984375 12.546875 C-6.16984375 11.226875 -6.49984375 9.906875 -6.83984375 8.546875 C-3.83984375 6.546875 -3.83984375 6.546875 -1.15234375 6.921875 C-0.38921875 7.128125 0.37390625 7.334375 1.16015625 7.546875 C1.91015625 10.296875 1.91015625 10.296875 2.16015625 13.546875 C0.10845321 16.66546362 -1.18727317 17.4109228 -4.83984375 18.171875 C-7.83984375 17.546875 -7.83984375 17.546875 -10.21484375 14.921875 C-11.96893193 11.27876878 -12.59856217 9.50907122 -11.83984375 5.546875 C-8.61499971 0.76162255 -5.54556925 -0.33328964 0 0 Z " fill="#080808" transform="translate(465.83984375,376.453125)"/>
<path d="M0 0 C0 1.32 0 2.64 0 4 C-2.97 4.66 -5.94 5.32 -9 6 C-8.98839844 6.81984375 -8.97679687 7.6396875 -8.96484375 8.484375 C-8.95582031 9.56203125 -8.94679688 10.6396875 -8.9375 11.75 C-8.92589844 12.81734375 -8.91429687 13.8846875 -8.90234375 14.984375 C-8.98626186 17.57576626 -9.05335753 19.59823281 -10 22 C-13.08888522 24.05925681 -13.70935927 24.2390374 -17.1875 24.125 C-18.445625 24.08375 -19.70375 24.0425 -21 24 C-20.67 22.68 -20.34 21.36 -20 20 C-17.69 19.34 -15.38 18.68 -13 18 C-12.97421875 17.10796875 -12.9484375 16.2159375 -12.921875 15.296875 C-12.86515625 14.12640625 -12.8084375 12.9559375 -12.75 11.75 C-12.70359375 10.58984375 -12.6571875 9.4296875 -12.609375 8.234375 C-11.90521039 4.4968859 -10.94150278 3.32223904 -8 1 C-5.29120665 -0.35439668 -2.99066732 -0.06501451 0 0 Z " fill="#050505" transform="translate(424,402)"/>
<path d="M0 0 C5.75 0.75 5.75 0.75 8 3 C8.14517744 5.9093558 8.18630796 8.719946 8.125 11.625 C8.11597656 12.42679687 8.10695313 13.22859375 8.09765625 14.0546875 C8.07406223 16.03658523 8.03819065 18.01832981 8 20 C9.32 20 10.64 20 12 20 C12 14.06 12 8.12 12 2 C12.66 2 13.32 2 14 2 C14 8.6 14 15.2 14 22 C11.69 22 9.38 22 7 22 C5.34502644 18.69005287 5.89915665 15.00877 5.9375 11.375 C5.94201172 10.57320313 5.94652344 9.77140625 5.95117188 8.9453125 C5.96296832 6.96350994 5.98090395 4.98174567 6 3 C3.03 2.505 3.03 2.505 0 2 C0 1.34 0 0.68 0 0 Z " fill="#2A2A2A" transform="translate(480,406)"/>
<path d="M0 0 C1.32 0 2.64 0 4 0 C4 7.92 4 15.84 4 24 C2.68 24 1.36 24 0 24 C0 16.08 0 8.16 0 0 Z " fill="#0A0A0A" transform="translate(460,402)"/>
<path d="M0 0 C1.75 0.0625 1.75 0.0625 4 1 C7.86020851 6.44970613 8.54311912 10.35923052 8.25 16.9375 C8.22292969 18.10635742 8.22292969 18.10635742 8.1953125 19.29882812 C8.14866383 21.19976131 8.07693829 23.10005169 8 25 C6.02 25.99 6.02 25.99 4 27 C3.01 26.34 2.02 25.68 1 25 C0.77892213 22.2114711 0.71892465 19.65346819 0.8125 16.875 C0.82603516 16.12089844 0.83957031 15.36679687 0.85351562 14.58984375 C0.88890015 12.72625873 0.94270833 10.86304022 1 9 C1.66 9.33 2.32 9.66 3 10 C3 14.95 3 19.9 3 25 C3.99 25 4.98 25 6 25 C5.93963048 22.28940855 5.8524809 19.58406023 5.75 16.875 C5.73582031 16.11445313 5.72164063 15.35390625 5.70703125 14.5703125 C5.47848726 9.26809193 4.3627845 6.28820194 1 2 C0.67 1.34 0.34 0.68 0 0 Z " fill="#2D2D2D" transform="translate(347,402)"/>
<path d="M0 0 C0.721875 0.268125 1.44375 0.53625 2.1875 0.8125 C2.1875 1.4725 2.1875 2.1325 2.1875 2.8125 C0.53217377 3.83116229 -1.13510138 4.83060813 -2.8125 5.8125 C-4.33356634 8.85463267 -4.18679338 12.09297572 -4.375 15.4375 C-4.41818359 16.14390625 -4.46136719 16.8503125 -4.50585938 17.578125 C-4.61194751 19.32268537 -4.71272889 21.06756697 -4.8125 22.8125 C-5.8025 23.1425 -6.7925 23.4725 -7.8125 23.8125 C-7.94780844 20.74851549 -8.0467407 17.69052874 -8.125 14.625 C-8.16689453 13.76068359 -8.20878906 12.89636719 -8.25195312 12.00585938 C-8.33953169 7.4342585 -8.29428364 5.45487819 -5.46875 1.6875 C-2.8125 -0.1875 -2.8125 -0.1875 0 0 Z " fill="#050505" transform="translate(290.8125,402.1875)"/>
<path d="M0 0 C0.625 3.375 0.625 3.375 1 7 C0.34 7.66 -0.32 8.32 -1 9 C-4.625 8.625 -4.625 8.625 -8 8 C-9.32278481 2.58860759 -9.32278481 2.58860759 -7.9375 0.0625 C-5.08906752 -1.49954362 -3.06495097 -0.74921024 0 0 Z " fill="#1D1D1D" transform="translate(550,420)"/>
<path d="M0 0 C1.19799449 4.14659373 0.8896192 7.99369047 0.5625 12.25 C0.48418945 13.36761719 0.48418945 13.36761719 0.40429688 14.5078125 C0.2751783 16.33894861 0.13834886 18.16953813 0 20 C0.99 19.67 1.98 19.34 3 19 C3.33 14.38 3.66 9.76 4 5 C4.33 5 4.66 5 5 5 C5 10.61 5 16.22 5 22 C3.02 22 1.04 22 -1 22 C-2.1482685 19.703463 -2.11561175 18.41686833 -2.09765625 15.8671875 C-2.09443359 15.06152344 -2.09121094 14.25585938 -2.08789062 13.42578125 C-2.07951172 12.58402344 -2.07113281 11.74226563 -2.0625 10.875 C-2.05798828 10.02550781 -2.05347656 9.17601562 -2.04882812 8.30078125 C-2.03702874 6.20049091 -2.01909306 4.1002367 -2 2 C-1.34 2 -0.68 2 0 2 C0 1.34 0 0.68 0 0 Z " fill="#292929" transform="translate(363,406)"/>
<path d="M0 0 C0.66 0 1.32 0 2 0 C1.88618103 2.93832645 1.75943449 5.8751065 1.625 8.8125 C1.5940625 9.64587891 1.563125 10.47925781 1.53125 11.33789062 C1.49257813 12.14033203 1.45390625 12.94277344 1.4140625 13.76953125 C1.36693115 14.87711792 1.36693115 14.87711792 1.31884766 16.00708008 C1 18 1 18 -1 21 C-3.475 20.01 -3.475 20.01 -6 19 C-6 13.39 -6 7.78 -6 2 C-5.67 2 -5.34 2 -5 2 C-4.95101563 3.07121094 -4.90203125 4.14242188 -4.8515625 5.24609375 C-4.77654706 6.64325639 -4.7009987 8.0403905 -4.625 9.4375 C-4.5940625 10.14455078 -4.563125 10.85160156 -4.53125 11.58007812 C-4.42719371 13.39239188 -4.22080108 15.19817988 -4 17 C-3.34 17.33 -2.68 17.66 -2 18 C-1.93941406 16.78441406 -1.87882812 15.56882812 -1.81640625 14.31640625 C-1.73201668 12.73175772 -1.6473679 11.14712298 -1.5625 9.5625 C-1.52318359 8.76005859 -1.48386719 7.95761719 -1.44335938 7.13085938 C-1.11328125 1.11328125 -1.11328125 1.11328125 0 0 Z " fill="#2C2C2C" transform="translate(478,408)"/>
<path d="M0 0 C0.680625 -0.01417969 1.36125 -0.02835937 2.0625 -0.04296875 C4 0.1875 4 0.1875 7 2.1875 C6.67 2.8475 6.34 3.5075 6 4.1875 C4.98679687 4.15269531 4.98679687 4.15269531 3.953125 4.1171875 C3.06109375 4.09914063 2.1690625 4.08109375 1.25 4.0625 C0.36828125 4.03929687 -0.5134375 4.01609375 -1.421875 3.9921875 C-4.15398487 4.19916552 -5.70810179 4.71413686 -8 6.1875 C-9.26804566 8.2210948 -9.26804566 8.2210948 -10 10.1875 C-10.66 10.1875 -11.32 10.1875 -12 10.1875 C-12 12.8275 -12 15.4675 -12 18.1875 C-12.33 18.1875 -12.66 18.1875 -13 18.1875 C-13.68829114 9.58386076 -13.68829114 9.58386076 -11.125 5.625 C-10.42375 4.820625 -9.7225 4.01625 -9 3.1875 C-8.34 3.1875 -7.68 3.1875 -7 3.1875 C-7 2.5275 -7 1.8675 -7 1.1875 C-4.35559361 0.3060312 -2.71939248 0.02575182 0 0 Z " fill="#222222" transform="translate(342,399.8125)"/>
<path d="M0 0 C0.66 0 1.32 0 2 0 C1.8125 2.3125 1.8125 2.3125 1 5 C0.17371094 5.38414062 -0.65257812 5.76828125 -1.50390625 6.1640625 C-4.41615599 7.86534071 -4.41615599 7.86534071 -4.671875 11.72265625 C-4.72223883 13.16862838 -4.74744147 14.6156533 -4.75 16.0625 C-4.92822581 23.85645161 -4.92822581 23.85645161 -6 26 C-7.32 25.67 -8.64 25.34 -10 25 C-9.01 25 -8.02 25 -7 25 C-7.08701172 23.24623047 -7.08701172 23.24623047 -7.17578125 21.45703125 C-7.22269449 19.9088942 -7.26819298 18.36071383 -7.3125 16.8125 C-7.35439453 16.04357422 -7.39628906 15.27464844 -7.43945312 14.48242188 C-7.53311021 10.11800156 -7.40249795 8.51280734 -4.60546875 4.94921875 C-2 3 -2 3 0 3 C0 2.01 0 1.02 0 0 Z " fill="#2D2D2D" transform="translate(293,402)"/>
<path d="M0 0 C0.33 0 0.66 0 1 0 C1.08706286 4.41654255 1.14041378 8.83286457 1.1875 13.25 C1.21263672 14.50425781 1.23777344 15.75851562 1.26367188 17.05078125 C1.27817383 18.85869141 1.27817383 18.85869141 1.29296875 20.703125 C1.31653442 22.36843262 1.31653442 22.36843262 1.34057617 24.06738281 C0.96202973 27.32695265 0.27083886 28.67381701 -2 31 C-4.73580245 31.79978096 -7.24120437 31.6954464 -10 31 C-12 28.5 -12 28.5 -13 26 C-12.484375 26.309375 -11.96875 26.61875 -11.4375 26.9375 C-8.33334577 28.29059287 -5.34884993 28.61359424 -2 29 C-1.02700338 25.68973391 -0.80653218 22.58290092 -0.68359375 19.140625 C-0.64169922 18.02558594 -0.59980469 16.91054688 -0.55664062 15.76171875 C-0.51732422 14.60285156 -0.47800781 13.44398438 -0.4375 12.25 C-0.39431641 11.07566406 -0.35113281 9.90132813 -0.30664062 8.69140625 C-0.20065206 5.79438549 -0.09858362 2.89728065 0 0 Z " fill="#2E2E2E" transform="translate(268,391)"/>
<path d="M0 0 C-1 3 -1 3 -3 4 C-3.13440778 6.42919865 -3.13440778 6.42919865 -2 9 C0.55518097 10.38293093 3.20866129 11.21791649 6 12 C6 12.33 6 12.66 6 13 C1.997753 13.31390173 -0.38328737 13.34116018 -3.9375 11.375 C-6 9 -6 9 -6.3125 5.75 C-6.209375 4.8425 -6.10625 3.935 -6 3 C-5.34 3 -4.68 3 -4 3 C-4 2.34 -4 1.68 -4 1 C-2 0 -2 0 0 0 Z " fill="#090909" transform="translate(527,408)"/>
<path d="M0 0 C-0.33 0.721875 -0.66 1.44375 -1 2.1875 C-2.00603529 5.01697427 -2.16977402 7.02895466 -2 10 C-1.01 10 -0.02 10 1 10 C1 10.66 1 11.32 1 12 C2.32 12.33 3.64 12.66 5 13 C1.52068855 13.31630104 -0.42283191 13.35518036 -3.4375 11.5 C-5.82280845 7.68350647 -4.99375999 5.32995426 -4 1 C-2 0 -2 0 0 0 Z " fill="#090909" transform="translate(312,408)"/>
<path d="M0 0 C0.33 0 0.66 0 1 0 C1.08636719 0.59167969 1.17273438 1.18335938 1.26171875 1.79296875 C2.25695719 7.39004362 3.48381036 10.25486713 8 14 C9 15 10 16 11 17 C7.07111171 16.73212125 5.45123779 16.47562903 2.6875 13.5625 C0.41863557 10.11718735 -0.12076845 8.45379143 -0.0625 4.375 C-0.05347656 3.55773437 -0.04445313 2.74046875 -0.03515625 1.8984375 C-0.02355469 1.27195312 -0.01195312 0.64546875 0 0 Z " fill="#2D2D2D" transform="translate(300,411)"/>
<path d="M0 0 C1.98 0 3.96 0 6 0 C4.02 0.99 4.02 0.99 2 2 C2 10.25 2 18.5 2 27 C1.67 27 1.34 27 1 27 C0.67 18.09 0.34 9.18 0 0 Z " fill="#222222" transform="translate(268,389)"/>
<path d="M0 0 C4.29942535 0.47771393 6.2935135 1.61689187 9 5 C9.75 7.25 9.75 7.25 10 9 C8.35 9.33 6.7 9.66 5 10 C5.33 9.01 5.66 8.02 6 7 C4.33045181 3.77595022 4.33045181 3.77595022 1.375 3.3125 C0.59125 3.209375 -0.1925 3.10625 -1 3 C-0.67 2.01 -0.34 1.02 0 0 Z " fill="#212121" transform="translate(314,400)"/>
<path d="M0 0 C2.97 0.495 2.97 0.495 6 1 C5.67 3.31 5.34 5.62 5 8 C4.34 6.68 3.68 5.36 3 4 C2.34 4 1.68 4 1 4 C0.34 4.99 -0.32 5.98 -1 7 C-2 4 -2 4 -1.0625 1.8125 C-0.5365625 0.9153125 -0.5365625 0.9153125 0 0 Z " fill="#111111" transform="translate(544,419)"/>
<path d="M0 0 C3 1 3 1 6 3 C4.35 3.66 2.7 4.32 1 5 C0.67 9.95 0.34 14.9 0 20 C-0.33 20 -0.66 20 -1 20 C-1.22224251 17.41718164 -1.42823488 14.83477813 -1.625 12.25 C-1.72167969 11.15558594 -1.72167969 11.15558594 -1.8203125 10.0390625 C-2.10381649 6.14088264 -2.27081383 3.29354678 0 0 Z " fill="#1E1E1E" transform="translate(369,406)"/>
<path d="M0 0 C0.93423645 3.01031744 1.04449911 3.86650268 0 7 C-0.22797562 9.73289293 -0.41668187 12.45042204 -0.5625 15.1875 C-0.60568359 15.93708984 -0.64886719 16.68667969 -0.69335938 17.45898438 C-0.79922685 19.30578375 -0.9000976 21.15286834 -1 23 C-1.33 23 -1.66 23 -2 23 C-2.25561761 19.91826331 -2.47482039 16.83497376 -2.6875 13.75 C-2.76033203 12.87730469 -2.83316406 12.00460937 -2.90820312 11.10546875 C-3.33135078 4.58401668 -3.33135078 4.58401668 -1.51953125 1.390625 C-1.01808594 0.93171875 -0.51664062 0.4728125 0 0 Z " fill="#212121" transform="translate(475,402)"/>
<path d="M0 0 C0.99 0 1.98 0 3 0 C1.40744017 3.55263346 -0.10795341 6.21708417 -3.8125 7.75 C-6.68283834 8.07803867 -9.18382581 7.57603563 -12 7 C-12 6.67 -12 6.34 -12 6 C-11.07767578 5.85304688 -11.07767578 5.85304688 -10.13671875 5.703125 C-5.04255188 4.92067393 -5.04255188 4.92067393 -1.125 1.875 C-0.75375 1.25625 -0.3825 0.6375 0 0 Z " fill="#232323" transform="translate(271,420)"/>
<path d="M0 0 C1.98 0 3.96 0 6 0 C6.33 1.32 6.66 2.64 7 4 C4.36 4 1.72 4 -1 4 C-0.67 2.68 -0.34 1.36 0 0 Z " fill="#090909" transform="translate(404,422)"/>
<path d="M0 0 C0.33 0 0.66 0 1 0 C1 5.61 1 11.22 1 17 C-0.32 16.34 -1.64 15.68 -3 15 C-2.34 14.67 -1.68 14.34 -1 14 C-0.52998967 10.72444392 -0.52998967 10.72444392 -0.375 6.9375 C-0.30023438 5.64714844 -0.22546875 4.35679687 -0.1484375 3.02734375 C-0.09945313 2.02832031 -0.05046875 1.02929688 0 0 Z " fill="#2F2F2F" transform="translate(367,411)"/>
<path d="M0 0 C0.33 0 0.66 0 1 0 C1 4.62 1 9.24 1 14 C1.99 13.67 2.98 13.34 4 13 C4 13.66 4 14.32 4 15 C2.35 15.33 0.7 15.66 -1 16 C-0.67 10.72 -0.34 5.44 0 0 Z " fill="#1C1C1C" transform="translate(282,412)"/>
<path d="M0 0 C0.99 0.33 1.98 0.66 3 1 C3 2.65 3 4.3 3 6 C1 7 -1 8 -3 9 C-3 7.68 -3 6.36 -3 5 C-2.01 4.34 -1.02 3.68 0 3 C0 2.01 0 1.02 0 0 Z " fill="#151515" transform="translate(532,401)"/>
<path d="M0 0 C0.99 0.33 1.98 0.66 3 1 C2.34 1.66 1.68 2.32 1 3 C0.61984012 5.5963192 0.49404686 8.1662335 0.34375 10.78515625 C0.2303125 11.51605469 0.116875 12.24695313 0 13 C-0.99 13.495 -0.99 13.495 -2 14 C-1.85970581 11.8537974 -1.71261836 9.70803782 -1.5625 7.5625 C-1.48128906 6.36753906 -1.40007812 5.17257812 -1.31640625 3.94140625 C-1 1 -1 1 0 0 Z " fill="#0F0F0F" transform="translate(418,408)"/>
<path d="M0 0 C2.625 0.375 2.625 0.375 5 1 C4.67 1.66 4.34 2.32 4 3 C3.01 3 2.02 3 1 3 C0.34 3.99 -0.32 4.98 -1 6 C-1.625 4.125 -1.625 4.125 -2 2 C-1.34 1.34 -0.68 0.68 0 0 Z " fill="#222222" transform="translate(447,412)"/>
<path d="M0 0 C1.0625 1.8125 1.0625 1.8125 2 4 C1 7 1 7 -1 8 C-2.99960012 8.039992 -5.00047242 8.04346799 -7 8 C-7 7.67 -7 7.34 -7 7 C-5.35 6.67 -3.7 6.34 -2 6 C-1.34 4.02 -0.68 2.04 0 0 Z " fill="#101010" transform="translate(465,386)"/>
<path d="M0 0 C0.66 0 1.32 0 2 0 C2.79953138 3.28696233 3.09658936 4.71023192 2 8 C1.34 8 0.68 8 0 8 C0 5.36 0 2.72 0 0 Z " fill="#343434" transform="translate(468,384)"/>
</svg>
